Filename:
Black Swan 2010 DVDSCR AC3 XViD - IMAGiNE
 
http://www.imdb.com/title/tt0947798/


DETAILS:

Video

ID                               : 0

Format                           : MPEG-4 Visual

Format profile                   : Advanced Simple@L5

Format settings, BVOP            : Yes

Format settings, QPel            : No

Format settings, GMC             : No warppoints

Format settings, Matrix          : Default (H.263)

Muxing mode                      : Packed bitstream

Codec ID                         : XVID

Codec ID/Hint                    : XviD

Duration                         : 1h 47mn

Bit rate                         : 1 242 Kbps

Width                            : 720 pixels

Height                           : 304 pixels

Display aspect ratio             : 2.35:1

Frame rate                       : 23.976 fps

Color space                      : YUV

Chroma subsampling               : 4:2:0

Bit depth                        : 8 bits

Scan type                        : Progressive

Bits/(Pixel*Frame)               : 0.237

Stream size                      : 954 MiB (86%)

Writing library                  : XviD 1.1.2 (UTC 2006-11-01)



Audio

ID                               : 1

Format                           : AC-3

Format/Info                      : Audio Coding 3

Mode extension                   : CM (complete main)

Codec ID                         : 2000

Duration                         : 1h 47mn

Bit rate mode                    : Constant

Bit rate                         : 192 Kbps

Channel(s)                       : 2 channels

Channel positions                : Front: L R

Sampling rate                    : 48.0 KHz

Bit depth                        : 16 bits

Stream size                      : 148 MiB (13%)

Alignment                        : Aligned on interleaves

Interleave, duration             : 42 ms (1.00 video frame)

Interleave, preload duration     : 512 ms





SOURCES:



VIDEO:Black Swan 2010 NOGRP ...... Thanks

AUDIO:Black Swan 2010 NOGRP ...... Thanks



NOTES:



IMAGiNE bringing you another release..........Black Swan 2010



Here we go we our version thrown into the mix

Source was badly ripped and needed alot of TLC to fix all the issues .It was really dark,colours off and

badly interlaced and ripped at a low bitrate.

Now we fixed all the brightness,colouring etc and also 99.5% of the interlace issues....however on some parts

you can see some but no where near as much.



Enjoy folks.